<svg width="71" height="47" viewBox="0 0 71 47" fill="none" xmlns="http://www.w3.org/2000/svg">
<g opacity="0.1">
<path d="M8.45514 25.4132L0 39.9073V5.87502C0 2.63034 2.63034 0 5.87502 0H25.4584L33.2918 7.83336H52.8752C54.4334 7.83336 55.9277 8.45234 57.0295 9.55412C58.1313 10.6559 58.7502 12.1502 58.7502 13.7084V19.5834H18.6042C14.4273 19.5913 10.5664 21.809 8.45514 25.4132Z" fill="#8C9BA5"/>
<path d="M18.6039 23.5001H67.5625C68.6142 23.5002 69.5856 24.0626 70.1094 24.9745C70.6332 25.8865 70.6295 27.0089 70.0997 27.9174L61.2309 43.1141C59.8273 45.5201 57.2516 46.9998 54.4661 47.0002H5.50753C4.45584 47.0001 3.48444 46.4378 2.96061 45.5258C2.43679 44.6139 2.44046 43.4914 2.97026 42.5829L11.8379 27.3862C13.2417 24.9798 15.818 23.5001 18.6039 23.5001Z" fill="#152935"/>
</g>
</svg>
