<svg width="18" height="18" viewBox="0 0 18 18" fill="none" xmlns="http://www.w3.org/2000/svg">
<g id="campaign">
<path id="Vector" d="M5.32461 8.51058C5.49961 8.16058 5.68086 7.82308 5.86836 7.49808C6.05586 7.17308 6.26211 6.84808 6.48711 6.52308L5.43711 6.31683L3.86211 7.89183L5.32461 8.51058ZM14.3621 3.35433C13.4871 3.37933 12.5529 3.63558 11.5594 4.12308C10.5654 4.61058 9.66211 5.26058 8.84961 6.07308C8.32461 6.59808 7.85586 7.16058 7.44336 7.76058C7.03086 8.36058 6.72461 8.92308 6.52461 9.44808L8.66211 11.5668C9.18711 11.3668 9.74961 11.0606 10.3496 10.6481C10.9496 10.2356 11.5121 9.76683 12.0371 9.24183C12.8496 8.42933 13.4996 7.52933 13.9871 6.54183C14.4746 5.55433 14.7309 4.62308 14.7559 3.74808C14.7559 3.69808 14.7466 3.64808 14.7281 3.59808C14.7091 3.54808 14.6809 3.50433 14.6434 3.46683C14.6059 3.42933 14.5621 3.40108 14.5121 3.38208C14.4621 3.36358 14.4121 3.35433 14.3621 3.35433ZM10.2371 7.85433C9.94961 7.56683 9.80586 7.21358 9.80586 6.79458C9.80586 6.37608 9.94961 6.02308 10.2371 5.73558C10.5246 5.44808 10.8809 5.30433 11.3059 5.30433C11.7309 5.30433 12.0871 5.44808 12.3746 5.73558C12.6621 6.02308 12.8059 6.37608 12.8059 6.79458C12.8059 7.21358 12.6621 7.56683 12.3746 7.85433C12.0871 8.14183 11.7309 8.28558 11.3059 8.28558C10.8809 8.28558 10.5246 8.14183 10.2371 7.85433ZM9.59961 12.7668L10.2184 14.2481L11.7934 12.6731L11.5871 11.6231C11.2621 11.8481 10.9371 12.0511 10.6121 12.2321C10.2871 12.4136 9.94961 12.5918 9.59961 12.7668ZM16.1809 2.75433C16.2809 4.12933 16.0559 5.46983 15.5059 6.77583C14.9559 8.08233 14.0871 9.32933 12.8996 10.5168L13.2746 12.3731C13.3246 12.6231 13.3121 12.8668 13.2371 13.1043C13.1621 13.3418 13.0371 13.5481 12.8621 13.7231L10.4996 16.0856C10.3121 16.2731 10.0871 16.3448 9.82461 16.3008C9.56211 16.2573 9.38086 16.1106 9.28086 15.8606L8.13711 13.1793L4.93086 9.97308L2.24961 8.82933C1.99961 8.72933 1.84961 8.54808 1.79961 8.28558C1.74961 8.02308 1.81836 7.79808 2.00586 7.61058L4.36836 5.24808C4.54336 5.07308 4.75286 4.94808 4.99686 4.87308C5.24036 4.79808 5.48711 4.78558 5.73711 4.83558L7.59336 5.21058C8.78086 4.02308 10.0279 3.15433 11.3344 2.60433C12.6404 2.05433 13.9809 1.82933 15.3559 1.92933C15.4559 1.94183 15.5559 1.96983 15.6559 2.01333C15.7559 2.05733 15.8434 2.11683 15.9184 2.19183C15.9934 2.26683 16.0526 2.35433 16.0961 2.45433C16.1401 2.55433 16.1684 2.65433 16.1809 2.75433ZM2.94336 11.9793C3.38086 11.5418 3.91511 11.3198 4.54611 11.3133C5.17761 11.3073 5.71211 11.5231 6.14961 11.9606C6.58711 12.3981 6.80261 12.9323 6.79611 13.5633C6.79011 14.1948 6.56836 14.7293 6.13086 15.1668C5.81836 15.4793 5.29661 15.7481 4.56561 15.9731C3.83411 16.1981 2.82461 16.3981 1.53711 16.5731C1.71211 15.2856 1.91211 14.2761 2.13711 13.5446C2.36211 12.8136 2.63086 12.2918 2.94336 11.9793ZM4.01211 13.0293C3.88711 13.1543 3.76211 13.3826 3.63711 13.7141C3.51211 14.0451 3.42461 14.3793 3.37461 14.7168C3.71211 14.6668 4.04661 14.5826 4.37811 14.4641C4.70911 14.3451 4.93711 14.2231 5.06211 14.0981C5.21211 13.9481 5.29336 13.7668 5.30586 13.5543C5.31836 13.3418 5.24961 13.1606 5.09961 13.0106C4.94961 12.8606 4.76836 12.7886 4.55586 12.7946C4.34336 12.8011 4.16211 12.8793 4.01211 13.0293Z" fill="#464F5E"/>
</g>
</svg>
