<svg width="24" height="22" viewBox="0 0 24 22" fill="none" xmlns="http://www.w3.org/2000/svg">
<path d="M0 4C0 1.79086 1.79086 0 4 0H20C22.2091 0 24 1.79086 24 4V18C24 20.2091 22.2091 22 20 22H4C1.79086 22 0 20.2091 0 18V4Z" fill="#E8EAEE"/>
<path d="M13.6274 11.7727L14.6733 12.0042L15.1167 12.1018C15.6078 12.2104 16.0546 12.4647 16.3989 12.8313L17.938 14.47C18.5552 15.1271 18.5523 16.1516 17.9312 16.8049L17.8677 16.8723C17.1773 17.5979 16.012 17.5718 15.354 16.8167L13.8345 15.0725C13.522 14.7139 13.3175 14.2733 13.2466 13.803L13.0259 12.3352C13.0015 12.1726 13.0582 12.0081 13.1782 11.8958C13.2984 11.7834 13.4668 11.7374 13.6274 11.7727ZM14.7134 4.59985C16.4803 4.60019 17.9135 6.03304 17.9136 7.80005V12.4915C17.9134 12.7121 17.7338 12.8916 17.5132 12.8918C17.2924 12.8918 17.1129 12.7122 17.1128 12.4915V7.80005C17.1127 6.47486 16.0385 5.40097 14.7134 5.40063H8.80029C7.47497 5.40074 6.40099 6.47472 6.40088 7.80005V13.7317C6.40116 15.0569 7.47507 16.131 8.80029 16.1311H13.3872L13.4673 16.1399C13.6493 16.1774 13.7866 16.3384 13.7866 16.5315C13.7865 16.7245 13.6493 16.8857 13.4673 16.9231L13.3872 16.9319H8.80029C7.03324 16.9318 5.5994 15.4987 5.59912 13.7317V7.80005C5.59923 6.03289 7.03314 4.59996 8.80029 4.59985H14.7134ZM14.2358 13.6545C14.2785 13.9366 14.401 14.2012 14.5884 14.4163L16.1079 16.1604C16.3789 16.4713 16.8588 16.4816 17.1431 16.1829L17.2065 16.1165C17.4624 15.8475 17.4636 15.4252 17.2095 15.1545L15.6704 13.5159C15.4638 13.2959 15.1955 13.1435 14.9009 13.0784L14.4585 12.9797L14.1226 12.9055L14.2358 13.6545ZM11.021 12.2102C11.2486 12.257 11.4203 12.4591 11.4204 12.7004C11.4204 12.9419 11.2486 13.1439 11.021 13.1907L10.9204 13.2004H8.42627C8.15013 13.2004 7.92627 12.9766 7.92627 12.7004C7.92643 12.4244 8.15023 12.2004 8.42627 12.2004H10.9204L11.021 12.2102ZM12.5698 9.78442C12.7973 9.83124 12.9691 10.0334 12.9692 10.2747C12.9692 10.516 12.7973 10.718 12.5698 10.7649L12.4692 10.7747H8.42627C8.15013 10.7747 7.92627 10.5508 7.92627 10.2747C7.92643 9.99865 8.15023 9.77466 8.42627 9.77466H12.4692L12.5698 9.78442ZM14.7573 7.35083C14.9851 7.3974 15.1566 7.59954 15.1567 7.84106C15.1567 8.11704 14.9327 8.3408 14.6567 8.34106H8.42627C8.15013 8.34106 7.92627 8.11721 7.92627 7.84106C7.92643 7.56506 8.15023 7.34106 8.42627 7.34106H14.6567L14.7573 7.35083Z" fill="#464F5E"/>
</svg>
